<?xml version="1.0" encoding="UTF-8" standalone="no"?>
<svg width="18px" height="18px" viewBox="0 0 18 18" version="1.1" xmlns="http://www.w3.org/2000/svg" xmlns:xlink="http://www.w3.org/1999/xlink">
    <!-- Generator: Sketch 3.6.1 (26313) - http://www.bohemiancoding.com/sketch -->
    <title>commerce</title>
    <desc>Created with Sketch.</desc>
    <defs></defs>
    <g id="Page-1" stroke="none" stroke-width="1" fill="none" fill-rule="evenodd">
        <g id="Blog" transform="translate(-402.000000, -567.000000)" fill="#454545">
            <g id="Group-13" transform="translate(249.000000, 129.000000)">
                <g id="Group-11">
                    <g id="Group-10" transform="translate(26.000000, 229.000000)">
                        <g id="Group-9" transform="translate(0.000000, 209.000000)">
                            <g id="Group-7" transform="translate(127.000000, 0.000000)">
                                <g id="commerce">
                                    <g id="Capa_1">
                                        <path d="M16.3091954,0 L11.2368154,0 C10.306802,0 9.00796921,0.537975336 8.35041909,1.19556075 L0.49316259,9.05280191 C-0.16438753,9.71035357 -0.16438753,10.7864392 0.49316259,11.4439909 L6.55603592,17.5068109 C7.21358604,18.1643964 8.28960169,18.1643964 8.94718556,17.5068109 L16.8044421,9.64956978 C17.4619922,8.99198437 18,7.69311481 18,6.76320048 L18,1.69080856 C17.9999663,0.760860476 17.2391413,0 16.3091954,0 L16.3091954,0 Z M14.0624955,5.62501477 C13.1305246,5.62501477 12.3749984,4.86952054 12.3749984,3.93751371 C12.3749984,3.00554063 13.1305246,2.25001266 14.0624955,2.25001266 C14.9944664,2.25001266 15.7499926,3.00554063 15.7499926,3.93751371 C15.7499926,4.86948679 14.9944664,5.62501477 14.0624955,5.62501477 L14.0624955,5.62501477 Z" id="Shape"></path>
                                    </g>
                                </g>
                            </g>
                        </g>
                    </g>
                </g>
            </g>
        </g>
    </g>
</svg>