<?xml version="1.0" encoding="UTF-8" standalone="no"?>
<svg width="18px" height="18px" viewBox="0 0 18 18" version="1.1" xmlns="http://www.w3.org/2000/svg" xmlns:xlink="http://www.w3.org/1999/xlink">
    <!-- Generator: Sketch 3.6.1 (26313) - http://www.bohemiancoding.com/sketch -->
    <title>clock</title>
    <desc>Created with Sketch.</desc>
    <defs></defs>
    <g id="Page-1" stroke="none" stroke-width="1" fill="none" fill-rule="evenodd">
        <g id="Blog" transform="translate(-574.000000, -568.000000)" fill="#454545">
            <g id="Group-13" transform="translate(249.000000, 129.000000)">
                <g id="Group-11">
                    <g id="Group-10" transform="translate(26.000000, 229.000000)">
                        <g id="Group-9" transform="translate(0.000000, 209.000000)">
                            <g id="Group-3" transform="translate(299.000000, 1.000000)">
                                <g id="clock">
                                    <g id="Capa_1">
                                        <g id="Group">
                                            <path d="M8.92285714,0 C4.00279592,0 0,4.00279592 0,8.92285714 C0,13.8429184 4.00279592,17.8457143 8.92285714,17.8457143 C13.8429184,17.8457143 17.8457143,13.8429184 17.8457143,8.92285714 C17.8457143,4.00279592 13.8429184,0 8.92285714,0 L8.92285714,0 Z M8.92285714,15.9470816 C5.04973469,15.9470816 1.89844898,12.7961633 1.89844898,8.92285714 C1.89844898,5.04955102 5.04973469,1.89863265 8.92285714,1.89863265 C12.7959796,1.89863265 15.9472653,5.04955102 15.9472653,8.92285714 C15.9472653,12.7961633 12.7959796,15.9470816 8.92285714,15.9470816 L8.92285714,15.9470816 Z" id="Shape"></path>
                                            <path d="M13.573102,8.64734694 L9.56314286,8.64734694 L9.56314286,3.82591837 C9.56314286,3.42018367 9.23418367,3.09122449 8.82844898,3.09122449 C8.42271429,3.09122449 8.0937551,3.42018367 8.0937551,3.82591837 L8.0937551,9.38204082 C8.0937551,9.78777551 8.42271429,10.1167347 8.82844898,10.1167347 L13.573102,10.1167347 C13.9788367,10.1167347 14.3077959,9.78777551 14.3077959,9.38204082 C14.3077959,8.97630612 13.9788367,8.64734694 13.573102,8.64734694 L13.573102,8.64734694 Z" id="Shape"></path>
                                        </g>
                                    </g>
                                </g>
                            </g>
                        </g>
                    </g>
                </g>
            </g>
        </g>
    </g>
</svg>