<?xml version="1.0" encoding="iso-8859-1"?>
<!-- Generator: Adobe Illustrator 16.0.0, SVG Export Plug-In . SVG Version: 6.00 Build 0)  -->
<!DOCTYPE svg PUBLIC "-//W3C//DTD SVG 1.1//EN" "http://www.w3.org/Graphics/SVG/1.1/DTD/svg11.dtd">
<svg xmlns="http://www.w3.org/2000/svg" xmlns:xlink="http://www.w3.org/1999/xlink" version="1.1" id="Capa_1" x="0px" y="0px" width="512px" height="512px" viewBox="0 0 417.125 417.125" style="enable-background:new 0 0 417.125 417.125;" xml:space="preserve">
<g>
	<path d="M333.227,39.545l-54.916,83.015l-56.76-83.015H333.227z M269.586,141.545H147.757l60.908,231.669L269.586,141.545z    M151.823,127.945h113.688l-56.847-83.15L151.823,127.945z M139.033,122.56l56.753-83.015H84.116L139.033,122.56z M195.758,377.58   l-62.057-236.035H0L195.758,377.58z M0.19,127.945H126.29L71.359,44.91L0.19,127.945z M345.889,45.06l-54.836,82.885h125.883   L345.889,45.06z M283.641,141.545L221.578,377.56l195.547-236.015H283.641z" fill="#D80027"/>
</g>
<g>
</g>
<g>
</g>
<g>
</g>
<g>
</g>
<g>
</g>
<g>
</g>
<g>
</g>
<g>
</g>
<g>
</g>
<g>
</g>
<g>
</g>
<g>
</g>
<g>
</g>
<g>
</g>
<g>
</g>
</svg>
